# xmcd
#
# Track frame offsets:
#	180
#	15271
#	31629
#	51403
#	66348
#	89189
#	112584
#	129717
#	145106
#	162762
#	184932
#	201311
#	213486
#
# Disc length: 3045 seconds
#
# Revision: 1
# Processed by: cddbd v1.4PL0 Copyright (c) Steve Scherf et al.
# Submitted via: EasyCDDAExtractor 6.0.0.1
#
DISCID=b60be30d
DTITLE=Mary Flower - Rosewood and Steel
DYEAR=1996
DGENRE=Blues
TTITLE0=Your Baby Gave You Nuthin' But the Blues
TTITLE1=Midnite Blue
TTITLE2=Stomp Down Mama
TTITLE3=Arrangement For Me Blues
TTITLE4=Hannah's Song
TTITLE5=Mystery Train
TTITLE6=Pony Blues
TTITLE7=Cock-A-Doodle Blues
TTITLE8=Two Days Straight
TTITLE9=Cypress Grove Blues
TTITLE10=Can't Sleep For Dreaming
TTITLE11=Roll On, Mississippi, Roll ON
TTITLE12=Old Guitar
EXTD=
EXTT0=
EXTT1=
EXTT2=
EXTT3=
EXTT4=
EXTT5=
EXTT6=
EXTT7=
EXTT8=
EXTT9=
EXTT10=
EXTT11=
EXTT12=
PLAYORDER=
